HIERARCHY
ROOT joint_Root
{
	OFFSET 0.0 0.0 0.0
	CHANNELS 6 Xposition Yposition Zposition Zrotation Xrotation Yrotation 
	JOINT Hips
	{
		OFFSET -17.1583 93.1646 452.98
		CHANNELS 6 Xposition Yposition Zposition Zrotation Xrotation Yrotation 
		JOINT Spine
		{
			OFFSET 15.7357 0.0 0.0
			CHANNELS 6 Xposition Yposition Zposition Zrotation Xrotation Yrotation 
			JOINT Chest
			{
				OFFSET 8.98455 -0.406207 0.0
				CHANNELS 6 Xposition Yposition Zposition Zrotation Xrotation Yrotation 
				JOINT Neck
				{
					OFFSET 16.3773 0.0 0.0
					CHANNELS 6 Xposition Yposition Zposition Zrotation Xrotation Yrotation 
					JOINT Head
					{
						OFFSET 6.45672 0.0 0.0
						CHANNELS 6 Xposition Yposition Zposition Zrotation Xrotation Yrotation 
						End Site
						{
							OFFSET 0.0 0.0 0.0
						}
					}
				}
				JOINT Shoulder_L
				{
					OFFSET 12.9942 -0.242716 4.98039
					CHANNELS 6 Xposition Yposition Zposition Zrotation Xrotation Yrotation 
					JOINT UpperArm_L
					{
						OFFSET 5.34809 0.0 0.0
						CHANNELS 6 Xposition Yposition Zposition Zrotation Xrotation Yrotation 
						JOINT LowerArm_L
						{
							OFFSET 24.3286 1.87007e-05 0.0
							CHANNELS 6 Xposition Yposition Zposition Zrotation Xrotation Yrotation 
							JOINT Hand_L
							{
								OFFSET 22.2916 0.0 0.0
								CHANNELS 6 Xposition Yposition Zposition Zrotation Xrotation Yrotation 
								End Site
								{
									OFFSET 0.0 0.0 0.0
								}
							}
						}
					}
				}
				JOINT Shoulder_R
				{
					OFFSET 12.9945 -0.242716 -4.98039
					CHANNELS 6 Xposition Yposition Zposition Zrotation Xrotation Yrotation 
					JOINT UpperArm_R
					{
						OFFSET -5.34813 0.0 0.0
						CHANNELS 6 Xposition Yposition Zposition Zrotation Xrotation Yrotation 
						JOINT LowerArm_R
						{
							OFFSET -24.3289 0.000322201 0.0
							CHANNELS 6 Xposition Yposition Zposition Zrotation Xrotation Yrotation 
							JOINT Hand_R
							{
								OFFSET -22.2915 -0.000108084 0.0
								CHANNELS 6 Xposition Yposition Zposition Zrotation Xrotation Yrotation 
								End Site
								{
									OFFSET 0.0 0.0 0.0
								}
							}
						}
					}
				}
			}
		}
		JOINT UpperLeg_L
		{
			OFFSET -2.19248 -6.46944 0.0
			CHANNELS 6 Xposition Yposition Zposition Zrotation Xrotation Yrotation 
			JOINT LowerLeg_L
			{
				OFFSET 39.0811 0.0 -1.23785e-05
				CHANNELS 6 Xposition Yposition Zposition Zrotation Xrotation Yrotation 
				JOINT Foot_L
				{
					OFFSET 40.9854 0.0 -1.26872e-05
					CHANNELS 6 Xposition Yposition Zposition Zrotation Xrotation Yrotation 
					JOINT Toes_L
					{
						OFFSET 11.7543 0.0 0.0
						CHANNELS 6 Xposition Yposition Zposition Zrotation Xrotation Yrotation 
						End Site
						{
							OFFSET 0.0 0.0 0.0
						}
					}
				}
			}
		}
		JOINT UpperLeg_R
		{
			OFFSET -2.19251 6.46944 0.0
			CHANNELS 6 Xposition Yposition Zposition Zrotation Xrotation Yrotation 
			JOINT LowerLeg_R
			{
				OFFSET -39.0811 -0.00228153 -0.0401928
				CHANNELS 6 Xposition Yposition Zposition Zrotation Xrotation Yrotation 
				JOINT Foot_R
				{
					OFFSET -40.9854 0.0 0.0
					CHANNELS 6 Xposition Yposition Zposition Zrotation Xrotation Yrotation 
					JOINT Toes_R
					{
						OFFSET -11.7543 0.0 0.0
						CHANNELS 6 Xposition Yposition Zposition Zrotation Xrotation Yrotation 
						End Site
						{
							OFFSET 0.0 0.0 0.0
						}
					}
				}
			}
		}
	}
}
MOTION
Frames:	4
Frame Time:	0.0333333
0.000000 0.000000 0.000000 0.000000 0.000000 -0.000000 -3.463560 93.130400 -0.291346 87.864000 3.693410 1.365900 15.735700 0.000005 -0.000001 69.496100 87.137300 -67.937300 8.984550 -0.406207 -0.000000 -2.372960 -2.142680 3.073170 16.377300 -0.000001 -0.000001 4.479470 2.330930 -1.488310 6.456720 -0.000001 -0.000000 3.872250 3.512070 -2.307140 12.994200 -0.242716 4.980390 -92.666800 8.179430 -71.872500 5.348090 -0.000007 -0.000001 -73.719500 26.984900 1.964440 24.328600 0.000019 0.000005 11.851400 25.196300 -26.239600 22.291600 -0.000001 0.000005 -2.007460 4.929400 8.786180 12.994500 -0.242716 -4.980390 88.905700 3.680390 -73.428100 -5.348130 -0.000001 -0.000004 -71.926200 28.323400 -2.172150 -24.328900 0.000322 -0.000009 0.646898 1.999460 -17.957100 -22.291500 -0.000108 -0.000004 -7.711510 5.159100 3.723580 -2.192480 -6.469440 -0.000000 -171.812000 -6.493550 -1.437490 39.081100 -0.000007 -0.000012 0.019583 -0.071420 15.333600 40.985400 -0.000006 -0.000013 -2.207650 14.357700 -67.957900 11.754300 -0.000000 0.000003 -0.001416 0.188778 -8.918550 -2.192510 6.469440 -0.000001 179.509000 8.354970 -179.051000 -39.081100 -0.002282 -0.040193 0.031291 -0.120641 13.047300 -40.985400 0.000008 0.000006 -3.918600 3.404180 -68.374100 -11.754300 -0.000006 -0.000006 -0.010502 0.275017 -5.399140
0.000000 0.000000 0.000000 0.000000 0.000000 -0.000000 -3.306120 93.146900 -0.251644 87.893900 3.822760 1.211890 15.735700 0.000005 -0.000001 68.367100 87.147000 -66.801000 8.984550 -0.406207 -0.000000 -2.430190 -2.242150 3.084700 16.377300 -0.000001 -0.000001 4.476940 2.391810 -1.570460 6.456720 -0.000001 -0.000000 3.803680 3.615260 -2.559570 12.994200 -0.242716 4.980390 -92.638500 8.082850 -71.853300 5.348090 -0.000007 -0.000001 -73.921200 26.773900 2.118710 24.328600 0.000019 0.000005 11.989600 25.167200 -26.536400 22.291600 -0.000001 0.000005 -2.066830 4.924900 8.877500 12.994500 -0.242716 -4.980390 88.927300 3.541000 -73.134700 -5.348130 -0.000001 -0.000004 -71.044500 27.769600 -2.024400 -24.328900 0.000322 -0.000009 1.034940 2.994570 -19.088900 -22.291500 -0.000108 -0.000004 -9.588700 5.165870 3.561510 -2.192480 -6.469440 -0.000000 -171.982000 -6.336330 -1.539420 39.081100 -0.000007 -0.000012 0.021541 -0.078952 15.260900 40.985400 -0.000006 -0.000013 -2.108830 14.274600 -68.018400 11.754300 -0.000000 0.000003 -0.001427 0.188929 -8.912440 -2.192510 6.469440 -0.000001 179.333000 8.569090 -179.038000 -39.081100 -0.002282 -0.040193 0.027378 -0.105747 12.809700 -40.985400 0.000008 0.000006 -4.274520 3.558960 -68.230300 -11.754300 -0.000006 -0.000006 -0.010535 0.275258 -5.389270
0.000000 0.000000 0.000000 0.000000 0.000000 -0.000000 -3.120440 93.153000 -0.170956 87.919000 4.051980 1.049130 15.735700 0.000005 -0.000001 65.830600 87.143100 -64.237800 8.984550 -0.406207 -0.000000 -2.517530 -2.481570 3.131580 16.377300 -0.000001 -0.000001 4.576390 2.500960 -1.780530 6.456720 -0.000001 -0.000000 3.587850 3.809840 -2.933540 12.994200 -0.242716 4.980390 -92.618600 8.001300 -71.811100 5.348090 -0.000007 -0.000001 -74.150700 26.506800 2.425860 24.328600 0.000019 0.000005 12.137300 25.056000 -26.922100 22.291600 -0.000001 0.000005 -2.166440 4.926330 8.848560 12.994500 -0.242716 -4.980390 88.947100 3.378620 -72.679700 -5.348130 -0.000001 -0.000004 -69.420100 26.387900 -2.094820 -24.328900 0.000322 -0.000009 1.451050 3.958240 -20.163700 -22.291500 -0.000108 -0.000004 -11.696900 5.158130 3.752680 -2.192480 -6.469440 -0.000000 -172.152000 -6.210800 -1.708250 39.081100 -0.000007 -0.000012 0.022525 -0.082419 15.286100 40.985400 -0.000006 -0.000013 -1.961690 14.316600 -68.059500 11.754300 -0.000000 0.000003 -0.001450 0.189238 -8.899880 -2.192510 6.469440 -0.000001 179.135000 8.947450 -179.012000 -39.081100 -0.002282 -0.040193 0.023884 -0.091994 12.592200 -40.985400 0.000008 0.000006 -4.650670 3.790240 -68.049800 -11.754300 -0.000006 -0.000006 -0.010435 0.274527 -5.419170
0.000000 0.000000 0.000000 0.000000 0.000000 -0.000000 -2.933860 93.172500 -0.087795 87.950400 4.355760 0.891732 15.735700 0.000005 -0.000001 62.715500 87.128900 -61.138900 8.984550 -0.406207 -0.000000 -2.623950 -2.774210 3.090140 16.377300 -0.000001 -0.000001 4.539650 2.579860 -1.994550 6.456720 -0.000001 -0.000000 3.507430 4.037380 -3.369320 12.994200 -0.242716 4.980390 -92.556400 7.849900 -71.897400 5.348090 -0.000007 -0.000001 -74.345000 26.286200 2.819430 24.328600 0.000019 0.000005 12.313900 24.885000 -27.418000 22.291600 -0.000001 0.000005 -2.267330 4.927630 8.822070 12.994500 -0.242716 -4.980390 88.962500 3.228980 -72.176800 -5.348130 -0.000001 -0.000004 -67.140500 24.191100 -2.353230 -24.328900 0.000322 -0.000009 1.573950 4.203460 -20.562300 -22.291500 -0.000108 -0.000004 -13.051300 5.142220 4.129190 -2.192480 -6.469440 -0.000000 -172.300000 -6.293560 -1.785220 39.081100 -0.000007 -0.000012 0.022911 -0.084531 15.164800 40.985400 -0.000006 -0.000013 -1.787630 14.671200 -68.104800 11.754300 -0.000000 0.000003 -0.001362 0.188050 -8.948150 -2.192510 6.469440 -0.000001 178.901000 9.443470 -178.888000 -39.081100 -0.002282 -0.040193 0.018723 -0.071054 12.220000 -40.985400 0.000008 0.000006 -5.165450 4.045060 -67.819800 -11.754300 -0.000006 -0.000006 -0.010694 0.276418 -5.341820
